<?xml version="1.0" standalone="no"?>
<!DOCTYPE svg PUBLIC "-//W3C//DTD SVG 20010904//EN"
 "http://www.w3.org/TR/2001/REC-SVG-20010904/DTD/svg10.dtd">
<svg version="1.0" xmlns="http://www.w3.org/2000/svg"
 width="1016.000000pt" height="1016.000000pt" viewBox="0 0 1016.000000 1016.000000"
 preserveAspectRatio="xMidYMid meet">
<metadata>
Created by potrace 1.11, written by Peter Selinger 2001-2013
</metadata>
<g transform="translate(0.000000,1016.000000) scale(0.100000,-0.100000)"
fill="#000000" stroke="none">
<path d="M4917 10153 c-3 -2 -24 -6 -47 -9 -57 -7 -188 -55 -266 -99 -123 -69
-285 -207 -364 -311 -13 -17 -63 -111 -66 -124 0 -3 -3 -12 -7 -20 -22 -55
-105 -322 -112 -362 -35 -180 -16 -348 56 -490 29 -57 25 -91 -16 -126 -34
-30 -39 -41 -50 -112 -6 -36 -8 -43 -17 -70 -18 -48 -78 -250 -84 -280 -4 -19
-8 -60 -9 -92 -1 -31 -9 -67 -17 -80 -23 -36 -31 -108 -19 -169 15 -76 18
-256 4 -270 -6 -6 -47 -11 -93 -11 l-83 0 -46 -48 c-61 -63 -78 -70 -169 -75
-132 -8 -184 -27 -249 -93 -53 -54 -77 -126 -77 -232 0 -80 24 -190 46 -215 4
-5 8 -16 8 -26 0 -57 91 -94 305 -124 99 -14 147 -28 165 -48 11 -11 20 -26
20 -32 0 -18 31 -41 65 -50 50 -12 59 -13 142 -20 86 -7 120 2 175 46 14 12
33 19 41 16 8 -3 29 -32 47 -64 51 -89 170 -251 189 -256 11 -2 23 -22 30 -49
15 -54 44 -90 91 -116 19 -10 55 -43 79 -73 24 -30 56 -60 72 -68 15 -8 33
-26 39 -41 12 -29 15 -129 8 -289 -3 -58 -2 -121 3 -140 18 -88 27 -239 34
-641 3 -157 8 -319 12 -360 6 -67 7 -523 3 -975 -1 -93 -2 -213 -1 -265 0 -52
0 -122 0 -155 0 -33 1 -100 2 -150 3 -163 -6 -223 -37 -256 -34 -35 -117 -63
-145 -49 -30 17 -62 14 -109 -7 -25 -12 -67 -24 -95 -28 -27 -4 -62 -14 -77
-21 -36 -18 -67 -23 -99 -14 -26 8 -52 -4 -120 -52 -13 -9 -46 -19 -73 -23
-50 -6 -89 -28 -140 -77 -21 -21 -36 -28 -61 -26 -34 2 -71 -18 -112 -59 -13
-12 -27 -24 -31 -24 -4 -1 -22 -3 -40 -5 -48 -6 -72 -22 -84 -55 -11 -32 -23
-36 -47 -16 -9 8 -52 28 -95 46 -150 62 -259 144 -491 371 -172 168 -271 276
-448 489 -48 58 -138 191 -170 252 -28 52 -77 183 -77 205 0 15 40 4 230 -61
41 -14 97 -26 124 -26 41 -1 53 4 83 33 19 18 38 42 43 53 16 41 -98 227 -292
475 -62 80 -119 152 -126 160 -30 34 -123 173 -196 295 -156 257 -222 350
-326 460 -26 28 -59 59 -73 68 -27 17 -93 23 -113 9 -11 -7 -47 -82 -39 -82 2
0 0 -14 -5 -32 -5 -17 -12 -63 -16 -102 -3 -39 -8 -80 -10 -91 -3 -11 -7 -38
-9 -60 -3 -22 -12 -78 -20 -125 -13 -80 -17 -104 -31 -197 -3 -21 -9 -63 -14
-93 -5 -30 -12 -75 -15 -100 -3 -25 -7 -56 -10 -70 -6 -26 -8 -46 -20 -155 -3
-33 -8 -71 -10 -85 -2 -14 -7 -47 -10 -75 -3 -27 -14 -106 -24 -175 -21 -139
-25 -374 -8 -419 6 -15 20 -34 31 -42 22 -14 165 -22 184 -10 6 3 13 20 16 37
3 17 12 44 19 60 19 43 78 134 86 134 7 0 32 -94 46 -168 2 -13 7 -32 10 -42
3 -10 8 -29 10 -42 3 -13 12 -59 21 -103 9 -44 20 -98 24 -120 4 -22 12 -52
18 -67 7 -16 10 -28 7 -28 -6 0 39 -107 76 -180 18 -36 33 -67 34 -70 4 -29
113 -217 160 -275 17 -22 50 -66 72 -99 45 -63 148 -174 228 -241 52 -44 151
-115 160 -115 16 0 103 -65 167 -125 45 -42 101 -83 141 -103 36 -18 69 -37
72 -42 4 -6 10 -8 15 -5 13 8 20 -25 15 -70 -6 -63 -12 -80 -39 -124 -24 -38
-39 -86 -52 -169 -3 -20 -11 -62 -18 -92 -7 -31 -10 -65 -5 -76 5 -14 0 -36
-13 -65 -17 -36 -20 -63 -19 -154 0 -60 -3 -116 -8 -124 -5 -8 -4 -26 4 -45 7
-17 11 -42 9 -56 -10 -73 -6 -128 12 -155 20 -30 21 -35 29 -108 5 -49 20 -87
37 -98 10 -6 11 -23 5 -79 -10 -100 65 -169 193 -177 112 -7 155 36 122 123
-48 126 -55 154 -57 219 -1 56 -8 82 -32 130 -26 51 -31 73 -33 150 -5 145 -4
187 5 235 4 25 6 56 4 70 -8 65 0 174 19 251 12 46 23 97 26 113 5 30 26 66
54 94 9 10 24 28 32 40 14 22 16 23 45 8 17 -9 34 -16 38 -16 5 0 73 -27 151
-60 79 -33 181 -71 227 -86 152 -47 168 -55 190 -90 15 -25 30 -35 57 -40 222
-37 468 -147 728 -326 171 -117 240 -195 285 -323 36 -104 106 -165 186 -165
78 0 142 41 273 174 66 66 136 141 157 166 90 109 185 189 358 305 216 143
407 242 610 314 244 88 425 169 663 298 70 37 236 145 286 185 206 165 475
424 567 548 181 242 292 492 355 795 20 99 25 123 29 140 2 11 12 59 21 108
10 48 21 87 24 87 3 0 33 -22 65 -50 33 -27 76 -58 95 -68 31 -17 49 -19 112
-14 21 2 71 49 88 81 7 13 14 40 17 60 9 71 12 327 4 376 -5 28 -11 73 -15
100 -3 28 -8 61 -10 75 -3 14 -10 68 -16 120 -6 52 -13 106 -15 120 -3 14 -7
43 -10 65 -4 22 -8 51 -10 65 -3 14 -7 43 -10 65 -3 22 -10 65 -15 95 -5 30
-12 71 -15 90 -3 19 -8 42 -10 50 -2 8 -6 31 -9 50 -27 168 -61 292 -105 380
-13 25 -72 60 -103 60 -84 0 -154 -90 -288 -370 -30 -63 -57 -117 -60 -120 -3
-3 -16 -27 -30 -55 -14 -27 -43 -81 -65 -118 -53 -90 -54 -91 -99 -172 -22
-39 -42 -72 -46 -75 -24 -19 -105 -141 -148 -223 -57 -108 -130 -223 -215
-336 -54 -71 -55 -75 -40 -98 22 -34 46 -44 90 -38 21 2 67 7 103 10 36 2 83
7 105 10 22 2 59 7 82 10 49 6 66 -11 53 -57 -8 -27 -99 -208 -110 -218 -3 -3
-28 -43 -55 -90 -55 -97 -144 -228 -189 -280 -89 -100 -337 -340 -421 -405
-21 -16 -47 -38 -57 -48 -10 -9 -22 -17 -28 -17 -5 0 -10 -4 -10 -8 0 -11
-199 -141 -270 -177 -57 -29 -208 -95 -225 -99 -5 -2 -48 -14 -95 -29 -95 -29
-168 -47 -256 -62 -115 -19 -157 -23 -244 -19 -189 8 -290 58 -381 190 -48 70
-83 199 -62 230 13 18 103 44 152 44 29 0 59 8 81 21 19 12 55 23 80 25 25 2
45 4 45 4 0 1 9 3 20 4 72 10 144 19 166 21 34 3 184 53 231 76 20 11 41 26
46 34 4 9 33 22 63 29 73 17 128 54 182 123 26 32 78 87 117 121 76 69 105
115 109 176 2 24 11 46 25 60 25 24 42 64 52 121 3 22 17 67 30 100 28 72 33
102 24 135 -5 17 0 48 11 85 19 58 25 162 14 215 -5 24 -11 59 -20 111 -9 52
-56 201 -75 238 -10 21 -37 90 -59 154 -22 64 -45 127 -52 139 -30 58 -160
221 -233 293 -45 44 -107 109 -138 145 -30 36 -119 129 -197 208 -136 137
-231 212 -288 227 -15 3 -32 12 -37 20 -38 46 -186 148 -288 198 -184 88 -202
116 -213 327 -5 98 -3 119 11 139 16 22 16 24 -4 40 -19 15 -21 24 -17 151 2
74 5 144 8 155 2 11 0 25 -5 32 -9 12 -6 178 4 188 8 9 43 13 153 19 141 8
273 17 293 20 9 2 44 -11 77 -29 33 -17 70 -34 83 -37 20 -6 22 -9 13 -27 -17
-30 17 -44 119 -47 145 -5 309 52 442 155 31 23 50 29 113 34 57 4 87 12 122
32 56 33 119 90 120 107 0 7 6 33 11 58 6 25 10 86 8 135 -4 104 -30 185 -75
231 -43 43 -168 85 -273 90 -115 5 -134 11 -165 49 -21 25 -48 40 -108 60
-135 46 -275 40 -406 -16 -53 -23 -78 -25 -154 -14 -27 4 -61 8 -75 10 -222
24 -245 29 -255 53 -12 28 -17 570 -6 591 6 10 24 23 41 30 16 6 44 16 61 23
18 6 54 40 87 82 31 39 78 94 104 121 25 28 69 75 98 105 141 151 212 310 255
568 8 48 8 201 0 242 -37 198 -129 386 -246 500 -98 96 -243 206 -323 245 -74
37 -257 93 -294 90 -12 -1 -22 1 -22 4 0 7 -257 11 -263 4z m199 -64 c14 -12
20 -78 7 -80 -5 -1 -44 -2 -88 -4 -44 -1 -100 -8 -125 -14 -25 -7 -50 -13 -55
-14 -6 -2 -51 -18 -100 -37 -99 -37 -171 -79 -226 -131 -19 -19 -47 -45 -62
-58 l-27 -25 -30 29 c-17 16 -30 34 -30 40 0 6 13 26 29 45 27 33 31 34 59 24
36 -14 42 -10 42 26 0 40 20 58 126 115 95 51 232 91 344 102 30 3 56 6 58 8
6 5 63 -14 78 -26z m94 -54 c0 -23 -16 -35 -36 -28 -13 5 -6 44 10 55 15 10
26 0 26 -27z m83 2 c7 -19 -28 -63 -38 -48 -10 18 3 61 19 61 8 0 16 -6 19
-13z m71 -24 c-6 -35 -37 -63 -42 -38 -4 18 23 65 38 65 5 0 7 -12 4 -27z m86
-10 c0 -5 -5 -25 -11 -45 -7 -27 -15 -38 -29 -38 -24 0 -25 20 -5 60 14 27 45
42 45 23z m56 -77 c-7 -37 -19 -51 -36 -41 -6 4 -2 22 11 47 24 46 34 44 25
-6z m-209 -15 c90 -40 85 -52 -76 -189 -68 -58 -76 -63 -118 -61 -53 3 -97 28
-116 66 -25 49 -59 153 -55 170 5 29 73 42 198 39 95 -2 124 -6 167 -25z m360
-39 c58 -60 118 -146 153 -218 18 -37 33 -72 34 -78 1 -6 4 -15 8 -21 5 -9 50
-166 64 -228 3 -12 8 -52 11 -89 5 -66 4 -68 -18 -69 -13 0 -34 -2 -46 -5 -29
-5 -39 14 -47 94 -9 77 -36 168 -83 282 -45 106 -87 172 -146 232 -68 70 -71
78 -40 126 26 40 28 41 51 26 13 -8 39 -32 59 -52z m-772 -9 c3 -10 6 -18 5
-18 0 0 13 -33 30 -74 33 -82 37 -101 17 -101 -26 0 -50 40 -83 138 -16 46
-16 54 -4 62 21 14 27 12 35 -7z m-61 -92 c14 -32 26 -65 26 -73 0 -8 5 -19
11 -25 7 -7 7 -13 0 -17 -5 -4 -18 5 -27 19 -28 43 -73 143 -67 149 16 16 33
1 57 -53z m635 14 c0 -11 -195 -158 -214 -161 -7 -1 -19 2 -26 7 -14 9 9 34
140 151 52 47 53 47 77 30 13 -9 23 -21 23 -27z m-724 -25 c8 -16 14 -32 13
-34 -2 -2 4 -12 13 -22 22 -27 40 -72 30 -78 -23 -15 -107 129 -89 152 14 17
15 16 33 -18z m-356 -37 c39 -25 40 -28 24 -45 -17 -20 -43 -24 -43 -8 0 6
-11 16 -25 22 -24 11 -33 37 -18 51 10 11 19 8 62 -20z m1158 -26 c-5 -17
-205 -114 -218 -106 -10 6 -6 14 15 30 16 13 58 47 94 76 l65 54 24 -23 c13
-12 22 -26 20 -31z m-858 -2 c12 -19 30 -50 41 -69 l21 -35 -22 -20 c-12 -11
-26 -18 -33 -15 -12 4 -76 123 -76 140 0 14 21 34 36 34 7 0 22 -16 33 -35z
m-349 -54 l25 -20 -38 -70 c-37 -69 -74 -162 -83 -211 -3 -14 -9 -41 -13 -60
-4 -19 -9 -64 -10 -99 -1 -38 -9 -76 -18 -92 -34 -57 -102 -59 -98 -2 7 96 46
250 116 448 5 17 12 39 14 49 3 11 16 37 30 58 19 28 29 36 38 28 6 -5 23 -19
37 -29z m281 -54 c21 -37 34 -69 30 -71 -19 -12 -110 122 -94 138 13 13 27 -1
64 -67z m969 44 c9 -18 2 -24 -77 -61 -88 -41 -134 -47 -100 -12 16 16 143 89
159 91 4 1 12 -8 18 -18z m-490 -21 c3 -1 9 -2 13 -1 19 3 107 -33 167 -69 83
-49 128 -96 135 -140 l6 -35 -18 25 c-113 155 -358 223 -518 145 -55 -28 -171
-130 -203 -180 -37 -58 -72 -150 -77 -202 -9 -86 -13 -100 -30 -100 -20 0 -23
39 -12 143 12 120 84 256 139 262 16 2 30 11 33 23 10 30 55 80 84 91 81 32
243 54 281 38z m-501 -162 c-19 -36 -44 -40 -106 -16 -32 12 -62 21 -66 20 -4
-1 -10 4 -13 12 -5 13 66 122 90 138 6 4 31 -24 58 -64 37 -56 45 -75 37 -90z
m1026 102 c5 -9 -42 -36 -80 -46 -5 -2 -20 -6 -33 -10 -17 -5 -21 -3 -17 8 3
8 24 20 45 27 22 6 42 16 45 21 8 13 32 13 40 0z m-465 -55 c58 -20 148 -86
184 -137 38 -52 54 -121 54 -223 0 -126 -38 -229 -114 -309 -41 -43 -56 -45
-75 -9 -8 15 -27 39 -44 54 -16 15 -43 52 -59 83 -31 59 -71 86 -147 100 -21
4 -48 16 -63 27 -28 22 -59 26 -127 16 -53 -8 -71 4 -64 44 2 13 6 42 10 64 6
43 46 137 67 159 7 8 20 22 29 32 38 45 134 106 199 126 18 6 91 -7 150 -27z
m500 -24 c0 -20 -33 -34 -98 -42 -20 -3 -32 2 -27 11 16 26 125 53 125 31z
m64 -67 c7 -18 -12 -30 -72 -44 -60 -14 -91 -8 -73 14 10 12 26 17 89 32 8 1
16 4 18 7 9 8 33 3 38 -9z m-1260 -10 c33 -9 67 -21 74 -27 22 -18 -5 -25 -56
-15 -26 5 -58 12 -72 14 -31 6 -44 19 -36 33 9 14 17 14 90 -5z m1029 -120
c17 -59 15 -227 -2 -248 -6 -7 -9 -15 -6 -18 5 -5 -13 -56 -38 -108 -27 -56
-117 -170 -134 -170 -21 0 -15 23 16 60 42 52 87 138 105 201 23 79 23 221 0
288 -2 8 -7 30 -10 49 l-6 34 30 -18 c23 -13 34 -31 45 -70z m254 53 c2 -3 6
-15 8 -28 2 -13 7 -42 11 -64 10 -58 12 -275 3 -309 -16 -57 -30 -55 -126 22
-39 31 -42 37 -38 73 3 21 9 48 14 61 7 20 6 108 -2 198 -2 20 5 27 43 41 40
15 75 17 87 6z m-1278 -21 c41 -7 48 -13 33 -28 -12 -12 -18 -11 -131 15 -8 2
-17 9 -19 16 -4 13 19 12 117 -3z m-11 -79 c38 -6 47 -12 39 -25 -10 -15 -147
3 -159 22 -12 19 1 24 44 16 24 -5 58 -11 76 -13z m-33 -72 c75 -11 104 -48
91 -119 -8 -41 -33 -54 -105 -50 -71 3 -83 16 -85 101 -2 61 0 69 18 74 12 3
26 4 31 3 6 -2 28 -6 50 -9z m1517 -50 c6 -30 -7 -40 -47 -36 -78 8 -65 56 16
60 21 1 28 -4 31 -24z m-1192 -101 c0 -7 -6 -17 -13 -21 -8 -4 -32 -34 -56
-65 -23 -32 -48 -58 -55 -58 -16 0 -33 20 -30 38 1 6 2 16 3 22 2 14 62 80 73
80 5 0 16 6 24 14 16 17 54 10 54 -10z m1181 17 c4 -1 6 -11 5 -23 -1 -29 -38
-36 -72 -13 -42 27 -9 45 67 36z m-1705 -42 c8 -16 13 -29 11 -29 -3 0 2 -26
9 -57 8 -32 14 -68 14 -80 0 -27 -51 -86 -65 -76 -20 15 -61 108 -57 131 2 14
18 30 43 43 40 20 44 39 8 39 -11 0 -30 -5 -41 -11 -26 -14 -42 1 -33 31 7 24
61 51 82 43 8 -3 20 -18 29 -34z m709 -1 c48 -21 27 -58 -33 -58 -15 -1 -38
-7 -51 -14 -30 -16 -67 -4 -74 25 -12 45 94 76 158 47z m-383 -30 c-8 -11 -15
-35 -27 -98 -10 -52 -40 -83 -66 -69 -25 13 -30 37 -15 67 21 41 87 112 103
112 11 0 13 -3 5 -12z m-122 -8 c0 -6 -19 -17 -62 -38 -5 -2 -8 4 -8 13 0 8
10 19 22 24 26 9 48 10 48 1z m1479 -24 c12 -14 11 -49 -2 -53 -34 -12 -91 24
-81 51 8 20 67 22 83 2z m-268 -23 c70 -60 105 -133 62 -133 -22 0 -133 118
-133 141 0 28 33 24 71 -8z m-650 -23 c18 -10 27 -49 12 -51 -5 0 -20 -2 -35
-4 -25 -3 -28 0 -28 25 0 24 7 34 28 39 2 1 12 -4 23 -9z m-604 -126 c-6 -107
-15 -134 -47 -134 -38 0 -53 111 -22 164 25 42 54 76 65 76 6 0 7 -45 4 -106z
m1490 70 l21 -13 -25 -53 c-31 -66 -102 -174 -137 -210 -29 -30 -95 -76 -141
-98 -16 -8 -47 -25 -67 -37 -57 -35 -58 -28 -3 19 70 60 126 116 162 163 35
45 95 161 113 218 13 41 27 43 77 11z m-254 -51 c63 -64 65 -67 50 -90 l-15
-23 -27 23 c-39 31 -101 117 -101 139 0 33 28 19 93 -49z m-841 4 c13 -20 9
-33 -23 -73 -17 -22 -56 -88 -86 -149 -30 -60 -56 -111 -58 -113 -6 -7 -33 11
-31 21 2 10 31 67 122 234 21 39 23 73 4 73 -12 0 -36 -33 -62 -85 -35 -70
-117 -195 -128 -195 -6 0 -10 5 -10 11 0 13 80 151 93 160 5 3 9 10 8 15 0 14
39 98 49 104 19 11 114 9 122 -3z m293 -20 c-2 -6 -6 -34 -9 -62 -2 -27 -10
-76 -17 -108 -10 -49 -10 -60 2 -67 15 -10 12 -15 -16 -24 -14 -4 -37 4 -70
26 -28 18 -54 32 -58 33 -4 0 -23 15 -42 34 -42 40 -46 79 -12 114 32 35 93
67 141 74 22 3 43 7 45 9 8 8 40 -17 36 -29z m60 -19 c-2 -50 -16 -108 -25
-108 -5 0 -6 14 -3 32 3 18 6 46 8 63 2 16 4 33 4 38 1 4 5 7 10 7 4 0 8 -15
6 -32z m378 10 c7 -7 28 -33 47 -58 19 -25 41 -51 48 -59 16 -16 11 -35 -11
-39 -10 -2 -26 13 -42 40 -15 24 -35 54 -44 68 -24 34 -32 60 -20 60 6 0 16
-6 22 -12z m-933 -14 c0 -3 -9 -19 -21 -35 -11 -16 -18 -29 -14 -29 3 0 1 -6
-5 -12 -6 -7 -24 -35 -41 -61 -31 -51 -61 -60 -67 -21 -2 14 19 43 65 92 61
66 83 83 83 66z m617 -27 c-5 -40 -59 -165 -65 -149 -5 17 48 182 60 182 5 0
8 -15 5 -33z m313 -84 c32 -48 47 -80 41 -86 -5 -5 -14 -6 -19 -3 -15 9 -92
145 -92 162 0 25 18 6 70 -73z m-1259 45 c0 -18 8 -58 18 -88 20 -60 14 -83
-23 -78 -30 4 -48 45 -42 98 6 59 9 72 21 87 17 21 25 15 26 -19z m1013 17 c3
-8 3 -21 0 -29 -6 -15 -53 -51 -58 -44 -6 6 35 88 43 88 5 0 11 -7 15 -15z
m172 -78 c69 -105 72 -133 17 -151 -27 -8 -30 -2 -34 54 -2 48 -20 84 -53 111
-17 14 -18 19 -7 33 22 26 34 19 77 -47z m-1249 -118 c38 -109 39 -142 5 -147
-19 -3 -27 6 -47 51 -32 69 -42 140 -25 173 8 13 18 23 24 21 6 -2 25 -46 43
-98z m549 33 c-2 -4 -7 -25 -10 -47 -10 -60 -15 -73 -31 -71 -8 1 -17 5 -21 8
-9 9 47 129 57 122 5 -3 7 -8 5 -12z m237 -79 c13 -15 15 -26 9 -43 -6 -16 -4
-40 5 -69 32 -105 41 -223 38 -456 -4 -193 -8 -306 -14 -336 -2 -11 -134 -8
-154 3 -18 9 -19 18 -12 127 8 141 8 162 1 276 -6 97 -18 450 -18 527 0 25 3
51 6 57 8 12 106 -50 139 -86z m-530 33 c37 -36 93 -73 166 -110 104 -53 109
-58 105 -83 -3 -15 -7 -29 -9 -31 -9 -9 -115 21 -171 49 -101 49 -191 151
-178 203 3 14 12 26 18 26 7 0 37 -24 69 -54z m-51 -144 c73 -74 173 -127 263
-138 22 -3 45 -12 51 -20 7 -9 13 -66 15 -142 5 -261 5 -448 -1 -476 -7 -36
-24 -42 -148 -51 -48 -4 -100 -8 -117 -10 -83 -8 -183 -18 -207 -20 -16 -1
-28 0 -29 4 0 3 -2 24 -4 46 -2 22 -11 67 -20 100 -13 46 -16 82 -11 156 3 53
8 102 11 110 3 8 6 73 8 145 3 121 6 135 30 176 14 25 31 67 37 94 11 49 34
84 54 84 6 0 36 -26 68 -58z m395 36 c-3 -8 -6 -5 -6 6 -1 11 2 17 5 13 3 -3
4 -12 1 -19z m-658 -106 c46 -115 49 -138 21 -147 -52 -16 -104 59 -104 150 0
62 4 80 18 103 12 20 21 7 65 -106z m1181 90 c0 -10 -57 -31 -65 -24 -6 7 34
31 53 32 6 0 12 -4 12 -8z m-184 -17 c-11 -8 -25 -15 -30 -15 -6 1 0 7 14 15
32 19 40 18 16 0z m-338 -84 c-1 -38 -5 -76 -9 -83 -5 -7 -7 24 -6 69 1 46 5
83 9 83 4 0 6 -31 6 -69z m452 16 c-3 -2 -34 -14 -69 -26 -51 -18 -66 -19 -72
-9 -13 19 -11 26 9 30 24 6 137 10 132 5z m66 -32 c-26 -19 -42 -19 -26 0 7 8
20 15 29 15 13 -1 13 -3 -3 -15z m-90 -67 c7 -8 -66 -45 -83 -42 -7 1 -17 2
-22 3 -15 2 0 40 18 43 26 5 80 2 87 -4z m-1177 -47 c12 -16 21 -32 21 -36 0
-4 16 -39 35 -76 38 -74 41 -89 24 -106 -21 -21 -44 -2 -87 70 -41 70 -49 105
-36 155 8 29 18 28 43 -7z m738 -3 c-3 -7 -5 -2 -5 12 0 14 2 19 5 13 2 -7 2
-19 0 -25z m0 -40 c-3 -8 -6 -5 -6 6 -1 11 2 17 5 13 3 -3 4 -12 1 -19z m551
-6 c9 -29 -17 -38 -110 -36 -129 2 -131 27 -3 43 73 9 108 7 113 -7z m-551
-74 c-3 -7 -5 -2 -5 12 0 14 2 19 5 13 2 -7 2 -19 0 -25z m553 -23 c0 -7 -9
-15 -20 -18 -26 -7 -198 -2 -206 6 -17 16 14 25 96 25 50 0 93 2 96 5 9 9 34
-4 34 -18z m-553 -27 c-3 -7 -5 -2 -5 12 0 14 2 19 5 13 2 -7 2 -19 0 -25z
m-752 -51 c16 -23 45 -63 64 -90 33 -45 33 -48 16 -67 -21 -24 -42 -15 -97 40
-43 43 -61 98 -47 140 13 35 25 31 64 -23z m1302 7 c6 -17 -32 -24 -135 -24
-71 0 -93 3 -90 13 3 8 32 13 88 14 46 2 85 4 87 6 8 9 47 1 50 -9z m-10 -81
c-21 -21 -184 -34 -199 -16 -17 21 -5 25 94 30 51 3 95 7 97 9 2 2 8 1 13 -2
6 -4 4 -13 -5 -21z m-506 -101 c-4 -92 -6 -111 -14 -118 -6 -6 -5 25 2 180 1
11 4 16 8 12 4 -4 6 -37 4 -74z m524 18 c0 -26 -194 -52 -221 -29 -22 18 -1
35 48 38 23 1 44 4 46 5 1 2 31 3 65 2 47 -1 62 -5 62 -16z m-1303 -57 c18
-16 42 -36 53 -47 11 -10 30 -25 43 -33 14 -10 22 -25 22 -44 0 -24 -4 -29
-24 -29 -13 0 -26 3 -28 8 -2 4 -21 17 -43 28 -46 25 -73 58 -81 97 -9 53 9
60 58 20z m1301 -27 c3 -8 0 -19 -7 -25 -15 -13 -148 -25 -182 -17 -25 7 -34
35 -11 37 40 3 101 10 104 12 1 2 22 4 47 6 31 1 45 -3 49 -13z m-8 -96 c6
-10 -51 -24 -65 -15 -6 3 -8 10 -6 14 7 11 64 12 71 1z m-1299 -42 c45 -35
109 -102 117 -120 8 -22 -17 -42 -46 -34 -35 8 -94 73 -111 121 -20 61 -8 70
40 33z m2163 -24 c2 -2 -2 -4 -10 -5 -8 -1 -25 -2 -39 -4 -121 -14 -131 -14
-127 -2 6 19 158 29 176 11z m-2271 -17 c2 -9 -2 -17 -10 -18 -106 -5 -152 -2
-155 8 -6 16 39 28 104 27 46 0 59 -4 61 -17z m1485 8 c59 -3 117 -8 130 -11
12 -3 40 -7 62 -10 113 -12 110 -11 96 -47 -11 -30 -8 -34 38 -42 27 -5 37 0
63 25 36 36 30 42 95 -88 64 -128 66 -126 -107 -136 -253 -14 -299 -17 -355
-21 -286 -21 -790 -21 -1065 -1 -14 1 -35 -1 -47 -6 -25 -8 -46 14 -58 64 -8
33 9 44 90 52 33 4 80 9 105 11 25 3 72 8 105 11 33 3 74 7 90 9 155 17 762
27 1045 16 135 -5 153 -4 148 12 -3 7 -26 13 -59 14 -30 1 -92 4 -139 7 -91 6
-588 7 -680 1 -30 -2 -118 -6 -195 -10 -77 -3 -153 -8 -170 -10 -93 -12 -325
-24 -342 -18 -14 6 -38 71 -29 80 4 4 46 8 94 9 105 3 226 12 267 19 202 37
227 39 490 38 267 0 377 -6 418 -22 22 -9 27 -8 27 5 0 20 -11 23 -100 28 -41
3 -77 6 -80 7 -9 2 -35 6 -65 7 -22 2 -26 5 -16 11 8 5 19 8 25 6 6 -2 59 -6
119 -10z m980 -53 c9 -8 17 -18 17 -22 0 -3 -53 -12 -117 -20 -165 -19 -182
-19 -190 -6 -25 39 -7 48 127 60 41 4 75 8 77 10 8 7 70 -8 86 -22z m-2448
-47 l0 -30 -105 0 c-91 1 -105 3 -108 18 -5 27 50 45 137 43 l76 -2 0 -29z
m2049 19 c44 -8 63 -47 81 -164 3 -19 8 -55 12 -80 3 -25 6 -94 6 -155 0 -90
-4 -119 -21 -157 -19 -44 -24 -48 -56 -48 -30 0 -36 4 -36 21 0 11 5 29 11 41
15 27 22 79 23 168 1 114 -18 208 -65 317 -22 52 -19 79 9 68 9 -4 25 -8 36
-11z m681 -49 c58 -15 103 -47 127 -91 12 -24 19 -46 16 -50 -8 -8 -47 -13
-141 -18 -85 -5 -103 8 -119 86 -9 44 -9 60 0 71 13 15 61 16 117 2z m-2583
-47 c85 -71 88 -74 88 -96 0 -37 -39 -34 -94 7 -74 55 -95 87 -79 126 8 23 17
19 85 -37z m2368 22 c26 -48 -11 -58 -185 -54 -114 3 -137 6 -143 22 -5 16 66
34 188 48 30 3 56 7 57 8 10 9 75 -10 83 -24z m-2844 -3 c7 -22 -4 -119 -16
-153 -9 -23 -13 -24 -127 -25 -173 -2 -169 -3 -152 65 8 33 22 55 47 76 19 16
39 27 44 24 4 -3 8 -1 8 5 0 12 91 29 148 27 31 -1 44 -6 48 -19z m266 -16
c57 -1 69 -4 78 -22 17 -31 -2 -45 -62 -48 -117 -5 -195 -10 -209 -13 -16 -3
-24 40 -11 60 5 7 24 16 43 19 19 2 35 6 37 7 1 2 15 2 30 0 15 -1 57 -2 94
-3z m2606 -100 c5 -32 -5 -39 -66 -51 -131 -24 -244 -29 -266 -10 -16 13 -18
58 -2 67 6 4 60 9 120 10 61 2 111 5 113 7 2 2 25 3 51 2 41 -1 47 -4 50 -25z
m-2502 -25 c7 -18 -9 -49 -27 -51 -33 -5 -208 -18 -249 -19 -38 -1 -45 2 -48
20 -4 25 27 41 95 50 27 3 49 7 50 8 2 1 41 3 88 5 68 2 86 -1 91 -13z m141
-53 c63 -48 83 -71 83 -98 0 -79 -148 20 -164 109 -7 38 22 34 81 -11z m2711
15 c-3 -7 -20 -16 -39 -21 -71 -15 -205 -34 -216 -29 -14 4 -18 44 -6 55 3 4
64 7 136 7 98 0 128 -3 125 -12z m-889 -27 c26 -26 17 -51 -18 -52 -14 0 -33
-2 -42 -4 -8 -1 -56 -6 -106 -9 -50 -4 -101 -9 -113 -11 -12 -2 -56 -7 -98
-10 -42 -4 -93 -8 -112 -10 -19 -2 -78 -6 -130 -10 -52 -3 -115 -8 -140 -10
-126 -11 -286 -18 -375 -17 -55 1 -179 2 -275 3 -96 1 -183 6 -192 11 -20 10
-45 56 -42 76 1 6 2 16 3 20 0 5 209 8 464 8 254 -1 507 3 562 7 55 4 129 10
164 13 36 2 66 5 67 7 1 1 83 4 182 5 171 4 181 3 201 -17z m-2434 -5 c11 -2
24 -5 30 -5 16 -2 -10 -21 -36 -26 -13 -3 -61 -10 -107 -17 -70 -10 -85 -10
-92 2 -14 23 7 48 43 52 38 4 134 0 162 -6z m2955 -11 c-1 -28 -14 -45 -43
-54 -69 -22 -231 -34 -259 -20 -20 11 -13 49 11 50 35 2 67 6 96 12 17 4 57 9
90 13 33 3 61 7 63 9 7 7 42 -1 42 -10z m-2510 -24 c21 -1 23 -39 2 -50 -26
-13 -174 -35 -242 -35 -40 -1 -45 2 -46 22 -1 12 3 25 9 29 15 9 78 23 137 29
30 3 56 7 57 8 1 1 53 0 83 -3z m2888 -23 c-2 -6 -13 -12 -24 -13 -29 -3 -106
-15 -139 -22 -16 -3 -49 -7 -73 -8 -39 -3 -43 -1 -40 18 4 26 29 31 181 34 72
2 98 0 95 -9z m-3289 -10 c43 -1 63 -24 33 -36 -27 -11 -267 -8 -269 3 -3 13
35 23 112 31 33 4 62 8 64 10 2 2 7 1 11 -1 5 -3 26 -6 49 -7z m2384 -37 c5
-1 6 -5 3 -10 -3 -4 -27 -11 -53 -15 -27 -3 -60 -8 -76 -11 -118 -21 -147 -25
-182 -30 -22 -4 -51 -8 -65 -11 -14 -2 -46 -6 -72 -9 -27 -3 -72 -8 -100 -11
-317 -37 -986 -51 -1040 -22 -18 9 -25 37 -10 39 4 0 18 3 32 5 14 3 156 7
315 9 160 2 333 6 385 9 121 8 225 16 270 21 19 2 71 6 115 10 44 4 96 8 115
10 19 3 80 7 135 11 55 3 101 6 102 7 1 2 106 0 126 -2z m517 -29 c0 -29 -15
-42 -66 -58 -76 -23 -193 -37 -220 -27 -8 3 -14 18 -14 33 0 33 16 39 155 55
33 3 61 8 62 9 2 2 21 3 43 4 32 2 40 -2 40 -16z m320 -7 c0 -6 -104 -26 -162
-31 -48 -4 -58 -3 -58 10 0 9 3 16 8 17 4 0 36 3 72 6 36 2 66 6 67 7 3 3 73
-6 73 -9z m-2802 -22 c2 -17 -2 -23 -15 -24 -20 -1 -41 -4 -118 -19 -109 -20
-155 -22 -155 -6 0 8 4 17 9 21 10 5 92 23 146 31 51 7 77 13 83 19 14 14 47
-1 50 -22z m-368 -4 c0 -16 -30 -27 -85 -33 -33 -4 -81 -9 -106 -12 -35 -4
-50 -2 -62 11 -37 36 -23 41 118 41 74 -1 135 -4 135 -7z m577 -14 c20 -9 52
-27 70 -41 28 -21 31 -28 23 -45 -18 -32 -60 -24 -108 20 -23 22 -42 49 -42
60 0 25 9 26 57 6z m1756 -4 c24 -4 -10 -20 -56 -26 -28 -4 -59 -9 -67 -10
-62 -11 -154 -23 -235 -30 -33 -3 -78 -7 -100 -9 -22 -2 -78 -7 -125 -11 -47
-4 -93 -9 -102 -10 -9 -2 -59 -7 -110 -10 -51 -4 -118 -9 -148 -11 -119 -10
-526 -11 -552 -2 -43 15 -24 26 39 22 72 -4 316 -4 403 1 178 8 397 23 450 30
19 2 64 7 100 11 36 3 74 8 85 10 11 2 40 6 65 9 25 3 58 8 73 11 35 7 64 11
147 20 36 3 66 7 67 8 2 2 50 0 66 -3z m692 -30 c-13 -13 -75 -21 -75 -11 0 5
17 11 38 13 20 2 39 4 42 5 2 1 0 -2 -5 -7z m-185 -25 c0 -11 -19 -15 -25 -6
-3 5 1 10 9 10 9 0 16 -2 16 -4z m-2843 -19 c-5 -15 -237 -22 -237 -8 0 14 12
16 131 18 79 1 109 -2 106 -10z m2777 5 c3 -5 -3 -18 -14 -29 -21 -23 -98 -39
-170 -34 -83 5 -80 37 5 45 75 8 139 18 144 22 8 7 30 4 35 -4z m-2629 -22
c-3 -5 -14 -10 -23 -9 -14 0 -13 2 3 9 27 11 27 11 20 0z m205 -22 c0 -4 -8
-7 -17 -6 -10 0 -49 -3 -88 -7 -38 -5 -67 -5 -64 -1 3 3 30 9 60 12 30 3 56 8
58 10 7 6 51 0 51 -8z m357 -78 c17 0 61 -39 59 -53 -4 -27 -17 -35 -48 -30
-52 8 -123 60 -139 101 -15 40 -1 43 60 12 32 -17 63 -30 68 -30z m2153 -20
c0 -5 -5 -10 -11 -10 -7 0 -18 -8 -25 -17 -7 -10 -14 -13 -14 -6 0 6 10 19 22
27 26 19 28 19 28 6z m-1135 -51 c12 -18 -2 -21 -80 -23 -106 -2 -132 18 -35
26 87 8 109 7 115 -3z m-305 -19 c5 -8 7 -17 5 -20 -10 -16 -22 -486 -14 -519
8 -27 -20 -22 -56 11 -20 18 -47 42 -59 53 -78 68 -106 97 -106 109 0 7 16 32
36 55 31 35 42 41 75 41 30 0 37 3 33 15 -3 8 -9 14 -12 13 -27 -3 -55 5 -70
20 -18 18 -21 73 -13 210 1 20 38 29 109 27 42 -1 66 -6 72 -15z m-410 -5 c68
-7 81 -13 88 -42 9 -42 11 -179 3 -192 -13 -21 -97 43 -117 89 -9 20 -29 45
-44 55 -30 20 -64 80 -55 96 4 5 18 7 33 5 15 -3 56 -8 92 -11z m-285 -41 c11
-2 35 -8 54 -12 78 -17 71 -87 -9 -84 -48 2 -93 30 -115 72 -24 46 -25 46 70
24z m996 -7 c-8 -8 -61 -11 -144 -8 -16 1 -26 5 -23 10 3 5 44 8 91 8 54 0 82
-4 76 -10z m-1 -58 c0 -10 -88 -10 -95 1 -2 3 13 7 33 8 20 2 38 5 41 7 6 7
21 -5 21 -16z m-17 -56 c-13 -2 -33 -2 -45 0 -13 2 -3 4 22 4 25 0 35 -2 23
-4z m-806 -54 c40 -13 56 -33 48 -58 -8 -26 -28 -32 -67 -20 -81 26 -136 72
-108 89 15 10 84 4 127 -11z m818 1 c4 -6 -6 -10 -22 -9 -25 0 -26 1 -8 9 11
5 21 9 22 9 1 1 5 -3 8 -9z m11 -62 c10 -32 -5 -59 -29 -53 -21 4 -81 13 -137
20 -14 2 -28 3 -32 4 -5 1 -8 8 -8 16 0 20 50 30 153 30 36 0 49 -4 53 -17z
m-701 -83 c45 -5 62 -14 68 -36 8 -30 -19 -49 -71 -49 -59 0 -102 16 -125 47
-38 50 -17 56 128 38z m700 -25 c0 -15 -2 -16 -120 -6 -27 2 -56 5 -63 5 -7 1
-10 6 -7 12 5 6 41 9 99 7 73 -2 91 -6 91 -18z m6 -71 c13 -25 -8 -34 -59 -25
-20 4 -59 9 -87 13 -57 6 -60 8 -50 23 4 6 41 10 96 9 77 -1 91 -4 100 -20z
m-493 -68 c4 -29 -6 -40 -44 -47 -60 -11 -90 -11 -116 3 -26 12 -54 50 -45 59
2 2 30 7 63 10 32 4 60 7 62 9 1 1 19 -1 40 -4 29 -5 38 -11 40 -30z m493 -7
c14 -9 1 -23 -19 -19 -9 1 -46 6 -82 10 -105 11 -106 25 -2 20 52 -3 98 -8
103 -11z m14 -77 c12 -17 11 -68 -1 -88 -7 -13 -61 -8 -92 7 -16 8 -36 9 -64
2 -47 -10 -68 -5 -68 16 0 12 18 13 106 9 97 -4 105 -3 102 13 -1 9 -11 18
-21 20 -178 26 -213 48 -66 41 71 -3 95 -7 104 -20z m-377 -50 c7 -58 -45 -81
-127 -57 -37 10 -81 46 -81 66 0 17 19 19 120 19 l85 0 3 -28z m175 -97 c24
-19 29 -51 12 -69 -4 -3 -42 -6 -86 -7 -66 -1 -85 3 -105 19 -33 26 -19 40 56
60 77 20 94 20 123 -3z m203 -12 c-1 -27 -24 -33 -50 -13 -23 18 -12 35 23 35
23 0 28 -4 27 -22z m-486 -28 c19 -17 56 -45 82 -62 69 -48 88 -89 94 -204 13
-275 12 -324 -5 -333 -9 -5 -23 -7 -31 -6 -46 8 -100 15 -135 17 -22 1 -45 5
-51 10 -12 9 -7 126 6 143 4 6 7 101 6 211 -1 150 -5 205 -15 217 -12 15 -8
37 7 37 4 0 23 -14 42 -30z m446 -87 c2 -33 -41 -56 -106 -58 -59 -2 -93 8
-124 36 -18 17 -18 18 20 28 57 14 82 17 149 17 55 -1 60 -3 61 -23z m116 -82
c21 -1 35 -46 19 -64 -13 -16 -149 -14 -180 3 -57 30 24 72 124 63 11 -1 28
-2 37 -2z m-200 -107 c15 -8 36 -15 47 -17 28 -4 38 -17 15 -18 -102 -7 -204
9 -204 31 0 31 86 33 142 4z m378 6 c11 -11 17 -26 14 -35 -9 -22 -107 -48
-154 -40 -46 8 -72 31 -49 46 8 5 21 9 29 9 9 0 40 9 70 20 68 24 66 24 90 0z
m127 -83 c17 -13 8 -58 -14 -71 -10 -6 -37 -16 -60 -22 -55 -15 -106 7 -111
47 -2 21 3 28 35 42 60 26 121 27 150 4z m-363 -12 c3 -10 -1 -15 -12 -16 -31
-2 -137 2 -157 6 -11 2 -36 4 -55 5 -67 4 7 15 115 18 84 2 104 -1 109 -13z
m106 -44 c0 -11 65 -78 87 -90 12 -6 38 -11 57 -11 25 0 38 -6 46 -19 5 -11
27 -30 47 -42 21 -13 40 -26 43 -29 14 -17 113 -89 129 -95 11 -3 25 -18 32
-34 7 -15 44 -50 82 -77 39 -27 86 -70 105 -95 19 -26 52 -57 73 -69 22 -11
39 -25 39 -31 0 -5 26 -35 58 -68 85 -87 134 -146 165 -204 15 -28 40 -62 56
-76 37 -35 79 -98 135 -206 40 -78 47 -100 50 -161 2 -46 9 -79 21 -97 14 -22
16 -40 12 -88 -5 -43 -2 -72 8 -96 8 -19 13 -45 10 -57 -3 -11 -7 -68 -9 -126
-2 -81 -9 -124 -30 -190 -52 -159 -59 -174 -97 -194 -23 -13 -41 -32 -48 -53
-16 -42 -129 -162 -158 -168 -22 -4 -204 -97 -230 -117 -7 -6 -38 -9 -70 -7
-91 3 -101 1 -135 -31 -20 -19 -35 -27 -42 -21 -6 5 -30 4 -56 -3 -47 -12 -75
-12 -100 -2 -9 4 -38 -8 -70 -29 -51 -33 -75 -40 -125 -36 -25 2 -74 21 -77
30 -4 16 -5 34 -25 411 -6 126 -12 580 -17 1455 -3 380 -8 660 -14 675 -14 36
1 70 27 63 12 -3 21 -8 21 -12z m-115 -23 c2 -7 5 -22 7 -33 3 -21 -2 -22
-199 -14 -53 2 -78 15 -65 36 10 15 33 19 150 21 77 2 103 0 107 -10z m521
-35 c19 -14 23 -41 9 -59 -10 -15 -28 -19 -82 -20 -37 -1 -74 3 -80 8 -18 15
-16 55 3 66 20 11 135 15 150 5z m-543 -62 c15 -1 27 -6 27 -12 0 -7 -18 -9
-52 -5 -29 3 -62 5 -73 6 -16 0 -17 2 -6 9 8 5 28 8 45 6 17 -2 43 -4 59 -4z
m710 -42 c20 -5 38 -14 38 -19 1 -6 2 -16 3 -22 5 -31 -17 -38 -108 -38 -93 1
-118 9 -124 42 -1 9 6 23 17 30 24 17 122 21 174 7z m-696 -31 c-2 -7 -15 -12
-28 -11 -13 1 -59 4 -102 6 -118 6 -104 17 22 17 86 0 112 -3 108 -12z m-370
-42 c53 -8 80 -26 68 -46 -5 -7 -21 -9 -46 -5 -56 10 -88 14 -139 21 -47 6
-66 16 -57 31 7 10 100 10 174 -1z m363 -31 c-6 -11 -73 -12 -169 -2 -105 11
-83 17 50 14 77 -1 122 -6 119 -12z m834 -17 c46 -20 46 -81 0 -99 -42 -15
-147 14 -185 52 l-23 23 70 17 c86 21 106 22 138 7z m-1179 -44 c49 -7 54 -10
50 -32 -1 -10 -10 -16 -21 -15 -11 1 -53 4 -94 8 -41 3 -84 9 -95 12 -23 6
-36 23 -29 35 5 8 108 4 189 -8z m352 -11 c8 -21 -16 -33 -57 -28 -45 6 -110
15 -135 20 -11 2 -26 4 -32 4 -7 1 -13 5 -13 10 0 12 55 17 153 13 59 -3 80
-7 84 -19z m3140 -50 c-3 -5 -8 -51 -11 -103 -4 -52 -12 -124 -17 -160 -6 -36
-12 -76 -13 -90 -12 -109 -20 -151 -32 -161 -19 -16 -95 -59 -116 -66 -10 -3
-18 -9 -18 -14 0 -5 -4 -9 -9 -9 -5 0 -40 -18 -77 -40 -72 -42 -84 -46 -84
-30 0 6 74 145 164 311 91 165 168 310 172 322 3 12 11 28 16 35 11 13 32 17
25 5z m-3452 -20 c6 -2 9 -35 8 -81 -2 -42 -4 -132 -6 -200 -2 -90 -7 -126
-17 -132 -12 -8 -22 -7 -96 5 -47 8 -82 41 -94 87 -17 63 -24 296 -10 313 10
11 35 15 109 14 53 -1 101 -4 106 -6z m283 -2 c12 -1 22 -5 22 -11 0 -6 -40
-8 -102 -5 -57 2 -113 4 -126 4 -14 1 -21 5 -16 12 4 7 38 9 103 5 53 -2 106
-5 119 -5z m1025 -25 c25 -38 -19 -76 -91 -76 -61 0 -142 46 -126 72 17 27
199 30 217 4z m-4707 -83 c4 -21 7 -41 6 -45 -1 -4 3 -19 8 -32 5 -14 12 -63
14 -108 6 -81 5 -84 -33 -158 -22 -41 -52 -101 -67 -132 -34 -74 -48 -75 -39
-2 4 31 8 77 11 102 3 44 11 102 20 147 3 11 7 36 10 55 3 19 8 44 12 55 3 11
7 23 8 28 1 4 2 8 4 10 6 7 11 46 10 75 -2 64 23 67 36 5z m3714 27 c14 -22
-7 -39 -43 -35 -18 2 -60 6 -94 10 -76 7 -100 12 -115 22 -21 12 24 18 138 18
81 0 107 -3 114 -15z m-12 -79 c6 -1 12 -12 12 -25 0 -24 0 -24 -92 -21 -51 2
-104 4 -118 5 -35 1 -54 15 -47 34 5 14 23 15 119 12 62 -2 119 -5 126 -5z
m1104 -6 c26 -10 29 -34 8 -55 -21 -21 -23 -22 -85 -25 -50 -3 -73 9 -86 42
-18 48 -7 55 74 50 39 -3 80 -8 89 -12z m-4641 -58 c15 -12 39 -49 39 -62 0
-9 -55 22 -69 39 -7 8 -10 20 -6 26 8 13 16 12 36 -3z m6852 -73 c7 -40 -4
-32 -60 40 -13 15 -20 33 -17 38 9 14 71 -50 77 -78z m-3311 28 c5 -5 8 -20 6
-33 -3 -22 -8 -24 -58 -23 -177 2 -221 15 -198 57 9 17 19 19 125 14 63 -2
119 -9 125 -15z m1234 -23 c15 -12 23 -44 15 -57 -11 -18 -94 -35 -132 -28
-42 7 -71 48 -50 69 30 30 138 40 167 16z m-4772 -45 c6 -15 4 -15 -11 -3 -10
7 -20 15 -22 16 -2 2 3 3 11 3 9 0 19 -7 22 -16z m3469 -38 c57 -3 81 -16 73
-41 -3 -10 -143 -16 -160 -7 -4 3 -28 5 -52 6 -48 2 -59 8 -51 30 7 17 35 22
92 18 22 -2 66 -4 98 -6z m3397 -43 c0 -13 -3 -13 -15 -3 -8 7 -15 16 -15 21
0 5 7 6 15 3 8 -4 15 -13 15 -21z m-67 -29 c18 -20 44 -51 60 -68 29 -32 32
-42 19 -50 -5 -3 -26 18 -48 46 -21 28 -43 56 -49 62 -29 32 -37 46 -25 46 6
0 26 -16 43 -36z m-1928 6 c22 -18 18 -48 -9 -75 -18 -18 -32 -23 -62 -20 -66
5 -91 16 -103 41 -17 39 -13 53 17 60 15 3 32 7 37 8 25 7 107 -3 120 -14z
m-1638 -40 c5 -66 3 -523 -1 -528 -3 -2 -25 1 -48 7 -24 7 -50 14 -58 15 -59
11 -100 29 -101 44 -5 57 -3 162 3 192 12 61 20 133 23 214 2 51 8 82 17 88 7
4 47 7 88 6 l75 -3 2 -35z m-3052 -16 c28 -26 26 -45 -4 -37 -21 5 -81 60 -81
74 0 14 57 -11 85 -37z m-290 -21 c1 -33 -33 -123 -56 -143 -3 -3 -27 -42 -55
-87 -27 -45 -54 -83 -61 -83 -13 0 -11 82 3 116 23 54 150 251 158 244 4 -5 9
-26 11 -47z m3616 38 c29 -1 38 -6 42 -23 9 -33 -8 -46 -56 -41 -53 5 -132 10
-174 12 -28 1 -33 5 -33 24 0 13 3 26 6 30 3 3 45 4 92 2 48 -2 103 -4 123 -4z
m3309 -114 c75 -101 89 -128 39 -81 -58 54 -140 174 -120 174 6 0 42 -42 81
-93z m-6637 9 c47 -27 88 -55 91 -61 6 -17 -29 -8 -69 17 -16 10 -38 21 -47
24 -10 4 -18 9 -18 13 0 4 -13 15 -30 24 -16 10 -30 23 -30 28 0 13 -1 14 103
-45z m6427 -1 c0 -23 -47 -81 -57 -71 -5 5 -111 -41 -183 -79 -30 -16 -57 -29
-60 -30 -3 0 -24 -11 -47 -23 -23 -12 -45 -22 -48 -22 -12 0 -3 27 18 51 21
26 176 119 197 119 5 0 10 4 10 9 0 5 8 11 18 14 9 4 42 17 72 31 71 31 80 31
80 1z m-3060 -21 c13 -14 13 -17 -2 -28 -9 -6 -31 -11 -50 -10 -18 1 -67 2
-108 3 -85 1 -105 9 -96 38 6 19 14 20 124 16 86 -3 121 -8 132 -19z m1405 10
c9 -9 15 -28 13 -43 -4 -35 -62 -56 -109 -39 -31 11 -66 68 -54 88 11 17 132
12 150 -6z m1801 -47 c69 -77 145 -179 142 -189 -5 -13 -10 -7 -93 88 -33 37
-68 76 -77 86 -19 19 -24 48 -10 48 5 0 22 -15 38 -33z m-6498 -74 c37 -28 37
-42 0 -22 -54 30 -148 94 -148 102 0 10 100 -44 148 -80z m-357 40 c14 -83 18
-175 8 -201 -6 -16 -6 -29 2 -38 9 -11 7 -18 -9 -31 -12 -10 -24 -30 -28 -45
-5 -24 -2 -29 29 -42 44 -18 54 -46 30 -83 -10 -15 -20 -30 -23 -33 -3 -3 -16
-22 -29 -43 -13 -21 -28 -43 -35 -50 -37 -38 -150 -249 -176 -329 -26 -83 -36
-20 -14 92 2 14 6 39 8 55 11 86 27 194 32 216 2 13 7 78 9 144 3 97 8 129 26
168 12 26 26 47 31 47 4 0 8 6 8 14 0 8 3 16 8 18 4 2 29 36 56 76 46 66 64
84 67 65z m209 -60 c44 -32 80 -61 80 -65 0 -6 -96 37 -157 70 -23 13 -32 52
-13 52 6 0 46 -26 90 -57z m3447 31 c4 -11 -1 -23 -15 -35 -19 -15 -37 -17
-125 -13 -72 4 -106 10 -117 20 -27 28 8 39 134 42 102 3 117 1 123 -14z
m3021 -40 c-2 -23 -13 -35 -53 -56 -27 -14 -52 -25 -55 -23 -15 9 -32 -14 -25
-34 7 -23 47 -29 75 -11 32 20 29 -13 -15 -200 -2 -8 -4 -21 -4 -29 -1 -9 -9
-11 -28 -6 -62 16 -101 10 -237 -37 -178 -62 -228 -81 -293 -107 -52 -20 -53
-20 -53 -2 0 59 230 334 343 410 102 69 317 152 340 131 5 -4 7 -20 5 -36z
m-1563 -28 c27 -18 38 -61 19 -77 -14 -12 -56 -7 -96 11 -28 13 -61 67 -51 83
8 13 101 1 128 -17z m-4733 -34 c2 -4 18 -18 36 -31 18 -13 31 -25 28 -28 -2
-3 -11 0 -18 6 -60 49 -71 60 -61 61 6 0 13 -4 15 -8z m3266 0 c13 -2 16 -30
6 -55 -5 -15 -25 -15 -114 0 -25 4 -67 7 -95 8 -40 1 -51 5 -53 20 -2 9 1 20
6 24 9 5 219 8 250 3z m-3344 -51 c105 -43 336 -172 336 -188 0 -17 -195 58
-235 90 -5 4 -46 32 -90 63 -75 51 -79 63 -11 35z m246 -6 c24 -28 4 -35 -30
-10 -33 25 -34 25 -8 25 14 0 31 -7 38 -15z m2902 -41 c15 -1 64 -5 109 -8 88
-6 97 -9 81 -28 -6 -8 -31 -12 -64 -11 -29 1 -81 2 -116 2 -46 1 -64 5 -68 16
-9 22 4 48 18 39 7 -5 25 -9 40 -10z m1658 -36 c49 -31 62 -53 48 -80 -11 -22
-51 -23 -68 -3 -7 8 -18 15 -26 15 -19 0 -42 37 -39 63 1 12 3 27 4 34 1 15
22 8 81 -29z m-1457 -96 c0 -18 -4 -36 -8 -40 -4 -4 -41 -6 -83 -5 -142 4
-156 7 -169 33 -21 42 -4 48 135 46 l127 -1 -2 -33z m-420 3 c34 -9 72 -20 85
-25 22 -9 30 -34 14 -44 -10 -6 -182 40 -194 52 -13 13 2 44 19 38 7 -3 42
-13 76 -21z m-3483 -61 c2 -45 -7 -100 -19 -120 -11 -19 -10 0 4 86 2 14 4 36
4 49 1 33 10 22 11 -15z m5374 -20 c31 -25 56 -48 57 -52 0 -4 2 -18 5 -31 5
-25 -18 -50 -47 -51 -28 0 -99 92 -99 129 0 25 10 51 20 51 5 0 33 -20 64 -46z
m-4420 10 c4 -11 1 -14 -11 -12 -10 2 -19 11 -21 21 -4 21 24 13 32 -9z m6196
-74 c89 -91 150 -160 150 -171 0 -19 -21 -8 -52 28 -62 70 -123 138 -160 178
-39 42 -51 67 -20 44 9 -7 46 -43 82 -79z m-3680 55 c8 -2 32 -6 54 -10 45 -6
73 -20 59 -28 -6 -4 -41 0 -79 8 -38 8 -79 15 -91 15 -14 0 -23 6 -23 15 0 15
27 15 80 0z m425 -35 c0 -25 0 -25 -95 -24 -125 2 -160 6 -160 19 0 29 26 36
140 33 l115 -3 0 -25z m-2890 -51 c5 -6 -14 0 -42 12 -29 12 -50 25 -47 30 4
8 68 -22 89 -42z m2523 16 c28 -5 46 -14 53 -27 8 -14 12 -143 13 -387 1 -201
5 -371 8 -377 4 -6 2 -18 -5 -27 -15 -20 -34 -16 -140 33 -73 34 -91 53 -80
86 4 12 57 9 110 -5 25 -7 35 -5 48 9 20 22 19 22 -75 45 -41 10 -78 21 -82
24 -4 3 -8 149 -9 324 -2 253 1 321 11 327 7 4 34 2 59 -5 25 -7 65 -16 89
-20z m-3203 -21 c-37 -34 -42 -24 -8 16 15 19 29 28 31 21 2 -7 -8 -23 -23
-37z m6506 26 c4 -32 1 -51 -15 -105 -20 -68 -76 -202 -147 -354 -27 -57 -49
-105 -49 -107 0 -2 -11 -27 -24 -56 -13 -29 -32 -74 -41 -100 -12 -32 -22 -45
-31 -41 -8 3 -14 9 -14 13 0 5 -22 33 -50 63 -48 52 -64 97 -41 111 5 3 19 25
31 48 12 24 67 113 122 198 56 85 121 189 146 230 25 41 52 83 60 93 16 18 51
23 53 7z m-126 -36 c-16 -38 -47 -86 -78 -121 -15 -17 -24 -20 -38 -12 -24 13
-24 31 1 54 11 10 20 23 20 29 0 19 71 86 91 86 18 0 18 -2 4 -36z m-5831 17
c4 -5 -3 -7 -14 -4 -23 6 -26 13 -6 13 8 0 17 -4 20 -9z m225 -107 c2 -2 2 -6
0 -8 -2 -2 -22 4 -43 15 -22 10 -45 19 -51 19 -6 0 -26 13 -45 29 -33 28 -31
27 50 -11 47 -22 87 -42 89 -44z m2789 71 c6 -2 12 -11 12 -20 0 -13 -19 -15
-124 -15 -122 0 -144 5 -133 33 3 9 36 11 118 9 63 -1 120 -5 127 -7z m-3498
-5 c0 -6 -15 -28 -34 -48 -19 -20 -45 -49 -58 -64 -25 -29 -48 -37 -48 -16 0
14 119 138 132 138 4 0 8 -5 8 -10z m6170 3 c0 -12 -62 -103 -71 -103 -14 0
-11 7 24 60 29 45 47 61 47 43z m421 -46 c-8 -8 -11 -7 -11 4 0 20 13 34 18
19 3 -7 -1 -17 -7 -23z m-6459 -10 c13 -20 9 -27 -12 -27 -23 0 -63 36 -55 50
7 11 56 -6 67 -23z m4867 -33 c49 -52 61 -72 59 -92 -9 -75 -120 -9 -147 86
-9 29 2 72 18 72 5 0 36 -30 70 -66z m1051 43 c0 -20 -30 -57 -46 -57 -19 0
-18 7 7 41 21 30 39 38 39 16z m-6045 -47 c-10 -11 -21 -18 -23 -15 -3 3 3 12
14 20 27 20 30 18 9 -5z m3503 -9 l-3 -26 -119 2 c-82 2 -122 7 -127 15 -16
26 12 33 131 34 l121 1 -3 -26z m2417 -1 c-3 -5 -10 -10 -16 -10 -5 0 -9 5 -9
10 0 6 7 10 16 10 8 0 12 -4 9 -10z m-5724 -51 c11 -6 33 -11 49 -11 23 -1 31
-7 39 -30 14 -40 -3 -44 -95 -22 -63 14 -77 22 -85 42 -5 13 -6 28 -3 33 7 11
66 4 95 -12z m-251 -5 c0 -12 -34 -64 -42 -64 -4 0 0 16 9 35 15 30 33 47 33
29z m6766 -41 c-3 -21 -5 -44 -6 -51 0 -7 -4 -11 -9 -8 -4 3 -7 23 -6 43 3 52
4 53 16 53 7 0 9 -14 5 -37z m-3212 10 c11 -28 -27 -38 -138 -38 -117 0 -114
-1 -107 44 2 14 240 8 245 -6z m-3750 -105 c-26 -46 -52 -93 -58 -105 -6 -13
-14 -23 -18 -23 -12 0 14 62 50 120 19 30 41 67 50 82 10 15 18 23 20 18 2 -5
-18 -47 -44 -92z m5246 -19 c10 -20 17 -49 16 -65 -2 -16 -4 -35 -5 -41 -2
-19 -52 -16 -68 5 -46 57 -66 148 -43 193 11 19 13 18 46 -18 19 -21 43 -54
54 -74z m-4974 9 c-58 -153 -79 -187 -89 -147 -8 30 37 124 92 192 23 28 22
21 -3 -45z m224 30 c0 -3 9 -4 20 -1 26 7 70 -22 70 -46 0 -16 -5 -18 -32 -14
-18 3 -60 6 -92 7 -56 1 -60 3 -67 28 -4 15 -5 29 -3 31 7 7 104 3 104 -5z
m6563 -35 c3 -15 9 -36 12 -45 11 -27 -17 -22 -52 10 -30 26 -30 28 -17 55 12
22 18 25 33 17 10 -5 21 -22 24 -37z m-3313 11 c0 -22 -36 -31 -102 -27 -165
11 -188 37 -36 40 56 2 103 5 106 7 8 9 32 -6 32 -20z m-3403 -42 c-3 -15 -20
-59 -37 -97 -17 -39 -41 -91 -52 -117 -22 -49 -37 -61 -39 -30 -2 33 3 48 57
160 54 108 83 143 71 84z m3401 -49 l-3 -28 -120 0 c-101 0 -120 2 -123 16 -5
25 36 36 146 38 l103 2 -3 -28z m1392 -3 c35 -49 61 -135 51 -163 -9 -22 -29
-37 -50 -37 -8 0 -38 57 -58 110 -11 28 -6 83 8 88 5 2 9 10 9 18 0 23 17 16
40 -16z m-4512 -4 c7 -4 19 -20 27 -37 l15 -29 -100 4 c-61 2 -105 8 -115 16
-15 12 -20 41 -9 52 8 8 168 3 182 -6z m6142 -58 c0 -20 -18 -4 -33 30 l-17
37 25 -30 c14 -16 25 -33 25 -37z m-6380 17 c0 -2 -13 -37 -28 -77 -16 -40
-39 -104 -52 -143 -13 -38 -27 -74 -31 -79 -17 -19 -19 43 -4 89 28 87 115
246 115 210z m3351 -38 c-9 -12 -56 -20 -101 -18 -8 1 -36 1 -62 2 -43 0 -57
7 -44 20 3 2 53 5 112 7 89 2 105 0 95 -11z m3005 -64 c6 -23 -1 -43 -15 -43
-11 0 -41 80 -41 105 1 17 4 16 26 -10 13 -16 27 -40 30 -52z m-6050 29 c11
-7 34 -45 34 -56 0 -3 -50 -5 -111 -3 -95 2 -112 5 -121 20 -14 27 -5 31 80
38 42 3 84 6 92 7 8 1 20 -2 26 -6z m3045 -21 c13 -2 16 -41 5 -56 -9 -13 -35
-17 -119 -20 -59 -2 -107 -3 -107 -1 0 12 23 66 28 67 4 1 38 3 76 5 38 2 71
5 73 8 2 2 12 3 21 1 9 -2 20 -4 23 -4z m-3276 -93 c80 -207 249 -464 406
-618 53 -52 101 -104 107 -115 8 -16 -2 -43 -55 -150 -36 -71 -73 -145 -81
-162 -9 -18 -24 -33 -33 -33 -28 0 -137 109 -193 193 -29 45 -77 125 -106 177
-29 52 -65 118 -80 145 -61 112 -79 152 -83 190 -4 42 20 124 66 226 37 81 43
124 21 133 -25 10 -37 -10 -68 -112 -39 -125 -48 -146 -57 -130 -9 16 -5 59
11 118 18 69 91 231 102 228 5 -2 25 -42 43 -90z m4607 39 c34 -74 13 -157
-39 -157 -37 0 -57 35 -54 98 2 72 8 90 29 94 31 7 49 -3 64 -35z m1498 -38
c0 -11 -4 -17 -10 -14 -5 3 -10 13 -10 21 0 8 5 14 10 14 6 0 10 -9 10 -21z
m-5802 -1 c6 -6 12 -19 12 -29 0 -15 -8 -19 -32 -20 -18 0 -66 -3 -107 -5 -77
-5 -101 4 -101 37 0 14 9 19 48 21 105 7 168 5 180 -4z m5534 -55 c69 -69 80
-91 53 -113 -8 -7 -15 -17 -15 -22 0 -5 -7 -20 -16 -34 -16 -23 -18 -24 -35
-8 -11 10 -19 23 -19 30 0 7 -4 14 -9 16 -5 2 -27 32 -50 67 -31 49 -38 67
-31 81 12 22 39 50 48 50 4 0 37 -30 74 -67z m-2547 16 c15 -24 -6 -45 -48
-48 -41 -3 -125 -4 -159 -2 -22 1 -24 37 -4 48 21 12 204 14 211 2z m2921 -85
c17 -44 13 -107 -7 -119 -24 -16 -68 147 -51 193 6 18 38 -21 58 -74z m-1727
30 c7 -26 6 -47 -6 -80 -19 -56 -43 -71 -73 -46 -21 17 -22 21 -11 72 7 30 18
65 26 77 21 31 52 19 64 -23z m1771 37 c0 -6 -4 -12 -8 -15 -5 -3 -9 1 -9 9 0
8 4 15 9 15 4 0 8 -4 8 -9z m-5881 -50 c25 -46 16 -56 -57 -58 -37 -1 -86 -4
-110 -7 -34 -4 -47 -1 -62 14 -37 37 -28 46 55 55 32 3 60 7 62 8 1 2 25 4 52
6 41 2 52 -2 60 -18z m5375 -88 c32 -42 61 -84 63 -93 6 -21 -28 -62 -43 -52
-14 9 -104 190 -104 209 0 29 28 8 84 -64z m-2454 53 c0 -14 -41 -24 -73 -18
-14 3 -16 7 -6 18 15 19 79 19 79 0z m-396 -25 c82 -25 89 -30 90 -73 0 -46
-14 -280 -18 -305 -3 -11 -7 -44 -11 -74 -5 -46 -16 -101 -29 -144 -1 -5 -6
-26 -10 -45 -10 -43 -30 -107 -61 -185 -12 -33 -26 -69 -30 -80 -5 -11 -10
-29 -11 -40 -6 -30 -35 -107 -49 -128 -19 -27 -18 -28 -120 170 -16 32 -32 60
-35 63 -14 13 -29 61 -23 75 11 31 36 9 102 -90 36 -54 72 -101 78 -103 28 -8
22 29 -14 87 -124 199 -117 183 -99 211 15 25 23 27 63 15 37 -12 40 20 5 53
l-29 27 22 90 c29 115 43 228 49 410 2 44 4 84 5 89 1 10 33 4 125 -23z m246
15 c0 -17 -17 -29 -47 -33 -24 -4 -37 11 -29 32 7 20 76 20 76 1z m1188 1 c13
-15 9 -81 -6 -119 -22 -53 -92 -45 -92 10 0 35 38 110 58 115 28 8 29 7 40 -6z
m1702 -67 c14 -51 18 -204 5 -208 -20 -7 -56 110 -54 178 1 36 4 71 7 78 7 21
31 -5 42 -48z m65 51 c3 -5 1 -12 -5 -16 -5 -3 -10 1 -10 9 0 18 6 21 15 7z
m-5639 -47 c18 -26 5 -43 -36 -48 -19 -3 -48 -7 -65 -10 -73 -12 -131 -16
-141 -9 -6 5 -14 18 -18 31 -5 16 -3 22 8 23 9 1 19 2 24 3 40 9 90 18 129 22
26 2 49 6 51 8 9 9 37 -2 48 -20z m5229 -69 l66 -95 -22 -33 c-34 -48 -134
-178 -158 -207 -12 -14 -43 -49 -69 -79 -85 -98 -131 -146 -135 -141 -8 8 -94
196 -108 233 -10 29 -10 39 0 51 28 33 40 21 107 -106 41 -79 64 -103 77 -80
7 10 -68 180 -94 215 -24 33 -26 28 67 127 91 96 131 141 156 177 13 18 28 33
35 33 6 0 41 -43 78 -95z m-1504 53 c2 -18 -1 -59 -6 -83 -2 -11 -4 -25 -4
-31 -2 -23 -43 -54 -71 -54 -43 0 -49 35 -15 97 28 52 59 83 81 83 8 0 14 -6
15 -12z m-888 -7 c10 -2 9 -29 -2 -35 -5 -3 -26 -8 -46 -12 -21 -3 -46 -7 -55
-9 -90 -17 -108 -17 -119 3 -13 25 4 49 39 54 22 4 164 3 183 -1z m745 -35 c3
-4 -9 -37 -27 -73 -28 -53 -42 -69 -74 -83 -45 -20 -63 -17 -73 12 -20 64 71
161 143 153 13 -1 27 -5 31 -9z m2128 -20 c8 -32 2 -58 -13 -64 -9 -2 -13 10
-13 42 0 49 16 62 26 22z m-5635 -8 c20 -22 24 -44 11 -52 -5 -3 -31 -8 -58
-11 -27 -4 -79 -12 -115 -19 -76 -14 -109 -5 -109 29 0 19 7 23 48 28 78 11
111 18 150 32 50 18 52 18 73 -7z m3294 -41 c7 -26 -9 -73 -32 -99 -24 -26
-67 -23 -81 6 -14 31 16 82 61 101 43 19 46 19 52 -8z m-135 4 c0 -6 -4 -13
-10 -16 -5 -3 -14 -23 -20 -44 -14 -52 -46 -91 -76 -91 -32 0 -42 39 -18 76
32 49 124 104 124 75z m-383 -24 c14 -15 -4 -19 -163 -33 -46 -4 -74 -3 -78 4
-10 16 11 24 73 29 31 3 57 6 59 7 5 6 102 -1 109 -7z m2796 -64 c2 -32 1 -65
-4 -73 -9 -16 -10 -9 -13 83 -2 66 10 59 17 -10z m-5483 8 c0 -15 -10 -21 -42
-26 -70 -11 -92 -15 -118 -20 -80 -16 -116 -17 -128 -2 -14 17 -6 26 31 33 12
2 67 14 122 27 105 24 135 22 135 -12z m2890 17 c-1 -25 -35 -59 -53 -52 -17
6 -24 44 -10 57 12 12 63 7 63 -5z m-2815 -98 c0 -17 -7 -24 -25 -27 -14 -1
-47 -8 -75 -14 -143 -31 -169 -31 -173 -4 -3 21 10 26 153 60 11 3 34 9 50 13
41 12 70 0 70 -28z m1961 1 c-19 -36 -93 -71 -106 -51 -12 19 14 48 65 71 48
22 59 16 41 -20z m564 29 c0 -4 -12 -10 -27 -13 -51 -9 -88 -18 -100 -22 -7
-2 -15 0 -18 6 -7 10 5 16 49 23 16 3 30 6 31 8 7 7 65 5 65 -2z m2668 -36 c3
-29 1 -36 -8 -28 -17 17 -25 77 -9 72 7 -2 15 -22 17 -44z m142 -41 c21 -47
19 -88 -5 -97 -18 -7 -35 44 -35 106 0 58 11 56 40 -9z m-3576 13 c-7 -18 -53
-50 -61 -42 -7 6 43 56 56 56 6 0 8 -6 5 -14z m811 -15 c-3 -6 -44 -22 -91
-38 -72 -23 -86 -25 -94 -13 -5 8 -7 17 -4 19 2 3 46 12 97 22 51 9 93 17 95
18 2 0 1 -3 -3 -8z m-2489 -23 c21 -22 12 -34 -31 -42 -20 -4 -61 -15 -93 -25
-100 -32 -107 -32 -131 -10 -12 11 -19 24 -16 29 6 9 84 35 135 44 14 2 36 9
50 14 35 14 68 11 86 -10z m1514 5 c-1 -19 -82 -93 -102 -93 -11 0 15 46 41
71 25 23 61 36 61 22z m-187 -64 c-28 -47 -80 -105 -88 -97 -20 20 53 128 86
128 20 0 20 -1 2 -31z m3161 -104 c81 -156 79 -152 56 -175 -25 -25 -49 -26
-57 -2 -3 9 -30 68 -60 131 -29 62 -53 118 -53 124 0 15 32 48 43 44 5 -1 37
-57 71 -122z m682 113 c11 -18 15 -98 5 -98 -12 0 -22 30 -25 76 -3 34 6 44
20 22z m-5088 -20 c7 -7 12 -17 12 -23 0 -14 -236 -86 -256 -78 -30 11 -11 33
54 57 162 62 170 64 190 44z m5036 -106 c3 -69 -9 -111 -26 -94 -13 13 -22
143 -12 182 l6 25 14 -27 c8 -16 16 -54 18 -86z m-2570 88 c-6 -6 -24 -13 -40
-16 -16 -3 -50 -11 -76 -19 -27 -8 -48 -10 -48 -6 0 4 37 17 83 29 100 25 93
24 81 12z m-204 -10 c-20 -13 -33 -13 -25 0 3 6 14 10 23 10 15 0 15 -2 2 -10z
m2553 -71 c12 -35 22 -75 20 -89 -1 -14 -4 -41 -6 -60 -2 -19 -5 -45 -6 -57
-2 -33 -21 -28 -21 5 0 15 -9 59 -19 98 -17 67 -20 142 -5 165 9 14 10 11 37
-62z m-3750 55 c8 -8 -13 -65 -32 -88 -21 -24 -69 -48 -81 -41 -15 9 24 78 60
109 32 27 42 30 53 20z m3261 -143 c64 -130 68 -141 52 -156 -9 -9 -21 -15
-27 -13 -6 2 -40 64 -75 138 -49 104 -61 137 -53 152 5 10 15 18 22 18 7 0 43
-63 81 -139z m-4259 109 c0 -9 -34 -28 -93 -51 -50 -19 -94 -38 -97 -41 -9 -9
-55 4 -55 16 0 13 197 94 225 92 11 0 20 -8 20 -16z m1662 -19 l32 -20 -21
-43 c-76 -158 -198 -258 -359 -294 -31 -7 -226 -7 -237 0 -5 3 -24 8 -43 11
-47 8 -169 44 -196 57 -24 12 -20 38 6 38 9 0 60 25 112 56 51 31 111 64 131
75 59 30 316 97 394 103 40 3 87 12 105 20 44 19 39 19 76 -3z m768 0 c-182
-75 -255 -97 -228 -70 6 6 17 12 24 13 8 2 21 6 29 9 79 33 149 56 170 56 23
0 23 -1 5 -8z m-2365 -36 c0 -11 -14 -21 -40 -30 -3 -1 -27 -12 -55 -24 -88
-41 -128 -52 -139 -41 -12 12 -18 8 102 68 98 49 132 55 132 27z m4074 -37
c18 -38 22 -63 19 -98 -5 -51 0 -58 44 -66 32 -6 44 -21 41 -48 -3 -16 -110
-90 -233 -160 -11 -6 -40 -24 -63 -39 -79 -51 -214 -118 -230 -115 -13 3 -17
17 -18 73 -2 87 -12 184 -24 226 -5 18 -7 36 -4 41 3 5 38 25 77 44 76 38 232
129 257 149 28 23 93 54 102 49 5 -3 19 -29 32 -56z m-3308 4 c-11 -71 -76
-98 -76 -32 0 38 41 83 66 73 12 -5 15 -14 10 -41z m4055 11 c3 -56 1 -124 -4
-130 -16 -16 -33 8 -31 44 1 21 2 53 3 71 1 34 30 48 32 15z m-5250 -61 c-39
-78 -111 -230 -122 -259 -5 -12 -13 -23 -18 -23 -13 0 -42 30 -38 38 108 222
166 315 192 306 12 -5 9 -16 -14 -62z m579 -9 c57 -37 133 -72 171 -80 22 -4
29 -11 29 -28 0 -27 -36 -75 -56 -75 -15 0 -50 -18 -70 -35 -16 -15 -44 -71
-44 -89 0 -42 -38 -25 -171 75 -96 72 -189 158 -189 173 0 10 182 109 220 119
8 2 26 -4 40 -13 14 -10 45 -31 70 -47z m4425 30 c-7 -35 -12 -89 -14 -170 -1
-18 -5 -33 -10 -33 -10 0 -8 101 3 160 4 19 9 44 11 55 5 26 4 25 11 25 3 0 3
-17 -1 -37z m-2227 -3 c2 -11 -22 -23 -85 -44 -49 -16 -94 -32 -100 -34 -23
-8 -13 25 12 42 36 24 116 52 145 52 14 -1 26 -8 28 -16z m-352 -28 c4 -22 12
-115 20 -217 3 -44 7 -139 8 -210 1 -72 6 -136 10 -143 4 -7 10 -214 12 -460
2 -246 6 -531 8 -634 3 -150 1 -189 -9 -198 -16 -13 -54 40 -121 170 -25 48
-62 98 -104 141 -101 101 -98 87 -96 575 l1 410 36 50 c47 63 71 112 98 199
13 39 43 126 67 195 25 69 47 131 50 139 5 17 17 7 20 -17z m-1378 -5 c5 -27
-6 -63 -24 -81 -27 -27 -36 -19 -30 27 3 23 5 49 5 58 1 23 45 19 49 -4z
m-883 -63 c111 -107 220 -202 285 -249 86 -62 88 -72 30 -137 -44 -50 -94
-143 -92 -170 2 -32 -31 -16 -42 20 -4 12 -12 22 -18 22 -27 0 -284 145 -318
180 -3 3 -24 18 -48 34 -69 47 -70 54 -17 159 25 51 57 110 70 132 14 22 29
50 35 63 5 12 15 22 23 22 7 0 49 -34 92 -76z m2655 11 c-7 -8 -49 -33 -93
-55 -70 -34 -83 -38 -90 -24 -5 8 -6 18 -2 22 9 9 189 80 194 76 2 -2 -2 -10
-9 -19z m2250 -93 c12 -57 11 -64 -5 -82 -13 -15 -21 -17 -31 -9 -7 6 -11 16
-8 22 3 10 10 76 13 137 2 30 19 -7 31 -68z m-4174 22 c-2 -25 -8 -50 -15 -57
-12 -12 -12 -13 -16 28 -3 26 17 75 30 75 2 0 3 -20 1 -46z m1189 -165 c82
-134 97 -169 74 -169 -5 0 -8 -4 -5 -9 6 -8 -15 -21 -34 -21 -4 0 -13 12 -18
28 -26 68 -95 231 -117 274 -23 47 -23 67 1 47 7 -6 52 -74 99 -150z m451 83
c5 -25 3 -32 -9 -32 -22 0 -30 17 -33 64 -3 39 -3 39 16 20 11 -10 22 -34 26
-52z m1462 7 c7 -28 10 -55 6 -60 -3 -5 -1 -9 3 -9 9 0 14 -58 15 -172 1 -32
-4 -64 -11 -72 -18 -21 -83 -39 -91 -25 -14 21 -8 175 8 229 9 30 17 78 18
105 2 61 0 55 22 55 14 0 21 -13 30 -51z m917 19 c-15 -175 -24 -212 -44 -179
-10 15 -8 36 10 112 11 48 17 79 18 92 1 4 5 7 10 7 5 0 8 -15 6 -32z m-2130
12 c3 -6 -2 -13 -12 -17 -10 -4 -35 -17 -55 -31 -46 -30 -69 -20 -36 15 35 38
89 55 103 33z m-807 -105 c17 -33 51 -109 77 -168 45 -104 46 -109 29 -128
-40 -44 -71 -9 -130 148 -20 54 -44 116 -54 138 -30 68 -31 73 -7 90 19 14 23
13 38 -3 9 -9 31 -44 47 -77z m970 50 c-33 -39 -178 -158 -184 -152 -5 5 30
39 146 146 56 51 81 55 38 6z m933 3 c2 -94 -9 -305 -17 -330 -5 -18 -38 -33
-52 -24 -9 5 -8 97 3 201 4 39 8 93 9 120 2 59 10 75 37 75 16 0 19 -7 20 -42z
m895 10 c-3 -18 -7 -39 -8 -45 -1 -7 -6 -13 -11 -13 -5 0 -7 14 -3 31 3 17 6
38 6 45 0 8 5 14 11 14 7 0 9 -12 5 -32z m-1001 -115 c-4 -65 -8 -153 -9 -196
l0 -77 -39 -11 c-21 -6 -47 -9 -57 -7 -17 3 -17 6 1 73 19 68 23 82 35 135 3
14 7 59 8 101 3 87 8 99 43 99 l26 0 -8 -117z m-3029 56 c1 -46 -7 -71 -36
-102 -22 -23 -33 -10 -37 48 -5 56 3 80 29 93 35 16 43 9 44 -39z m414 23 c0
-4 -18 -23 -40 -41 -50 -41 -136 -126 -172 -170 -29 -36 -63 -39 -63 -7 0 18
83 97 200 193 37 31 75 43 75 25z m689 -42 c17 -28 31 -53 31 -55 0 -3 9 -24
19 -48 11 -23 32 -73 47 -112 15 -38 30 -72 34 -75 4 -3 12 -15 19 -28 10 -18
9 -26 -6 -46 -20 -27 -54 -46 -83 -46 -28 0 -46 33 -69 125 -19 74 -24 101
-35 173 -10 62 -18 108 -21 122 -3 16 12 40 25 40 5 0 22 -23 39 -50z m1757 8
c-8 -24 -19 -56 -25 -71 -6 -16 -9 -33 -5 -38 3 -5 0 -9 -7 -9 -7 0 -10 -2 -7
-6 3 -3 -5 -36 -18 -74 -12 -38 -25 -87 -28 -109 -4 -35 -2 -41 15 -41 10 0
19 3 20 8 0 4 2 16 5 27 2 11 6 34 8 50 5 34 71 239 82 257 10 17 32 -92 23
-112 -4 -8 -9 -28 -12 -45 -12 -76 -51 -196 -66 -204 -18 -9 -96 -9 -105 0 -8
7 25 168 59 291 34 124 32 118 54 118 19 0 19 -2 7 -42z m-129 -20 c-8 -18
-41 -87 -72 -153 -31 -66 -58 -124 -59 -130 -2 -5 -8 -23 -14 -38 -7 -16 -12
-32 -12 -37 0 -12 -31 -21 -51 -15 -11 4 -19 11 -19 16 0 16 51 116 69 136 32
35 113 179 126 223 11 36 26 53 38 41 6 -6 4 -21 -6 -43z m-873 -32 l30 -55
-29 -40 c-15 -23 -39 -53 -53 -68 -23 -26 -25 -26 -38 -8 -7 10 -12 32 -11 49
2 17 0 43 -4 58 -6 21 -1 37 22 73 16 25 29 51 29 57 0 20 24 -9 54 -66z m360
17 c-48 -58 -159 -173 -168 -173 -26 0 8 43 117 153 85 86 114 97 51 20z
m-194 17 c-19 -16 -38 -30 -42 -30 -15 0 3 26 30 43 43 27 50 20 12 -13z m628
22 c-41 -103 -84 -170 -54 -84 22 60 39 92 48 92 6 0 8 -4 6 -8z m-1890 -24
c14 -28 33 -101 37 -143 2 -16 4 -30 5 -30 3 0 8 -34 14 -92 3 -31 11 -83 16
-116 12 -64 4 -87 -31 -87 -35 0 -59 84 -74 255 -4 39 -8 81 -10 95 -3 14 -7
51 -10 83 -5 55 -5 57 18 57 14 0 28 -9 35 -22z m109 -1 c7 -5 11 -13 8 -17
-2 -4 0 -22 5 -41 5 -19 11 -52 14 -74 5 -42 40 -247 52 -302 3 -18 3 -34 -2
-34 -37 -6 -55 -5 -59 1 -4 7 -11 42 -19 105 -3 22 -8 58 -10 80 -3 22 -8 68
-11 103 -3 35 -7 68 -10 72 -8 12 -19 93 -16 117 1 13 26 8 48 -10z m130 -14
c4 -21 8 -40 8 -43 1 -3 7 -30 13 -60 7 -30 14 -64 16 -75 3 -11 17 -60 32
-110 40 -135 40 -130 7 -143 -15 -6 -40 -14 -55 -16 -24 -4 -28 -1 -28 19 0
13 -7 50 -15 81 -8 32 -17 80 -20 108 -3 28 -8 58 -10 66 -4 16 -16 107 -20
150 -3 37 12 60 40 60 20 0 25 -7 32 -37z m2936 -11 c-20 -49 -26 -54 -20 -17
7 43 18 66 27 60 5 -3 2 -22 -7 -43z m-3602 -92 c-63 -60 -118 -107 -123 -104
-19 12 65 98 177 183 79 59 58 29 -54 -79z m225 69 c6 -30 12 -64 18 -107 3
-18 8 -50 11 -70 3 -21 7 -47 9 -58 12 -62 16 -124 8 -124 -11 0 -274 105
-313 126 -46 23 -38 42 51 114 24 19 48 40 54 45 55 53 140 115 148 107 4 -4
11 -19 14 -33z m99 19 c2 -7 6 -37 9 -66 14 -122 44 -289 56 -313 12 -22 -12
-43 -39 -34 -20 6 -32 26 -36 60 -2 11 -6 37 -9 58 -13 78 -17 113 -22 186 -3
42 -7 77 -9 80 -2 2 0 12 6 22 11 22 38 25 44 7z m3195 -38 c0 -39 -27 -190
-36 -199 -9 -9 -14 8 -17 57 -2 28 -1 54 2 58 3 3 6 11 6 17 1 7 5 33 9 60 11
60 36 65 36 7z m-154 -15 c-4 -19 -11 -33 -17 -30 -13 9 -11 63 4 68 18 6 20
1 13 -38z m370 3 c-1 -32 -5 -44 -18 -46 -21 -4 -24 22 -8 62 15 39 28 31 26
-16z m-1797 5 c-71 -89 -128 -149 -129 -136 0 15 19 40 80 105 43 45 78 67 49
31z m466 -40 c-2 -21 -7 -49 -10 -63 -3 -14 -7 -43 -10 -65 -11 -86 -17 -114
-28 -123 -17 -12 -57 -13 -79 -1 -16 9 -17 13 -7 25 7 9 21 13 31 11 10 -3 26
2 34 11 15 14 15 17 -1 29 -10 7 -22 10 -26 7 -5 -3 -9 -2 -9 1 0 14 95 205
102 205 4 0 5 -17 3 -37z m-415 -74 c-55 -106 -76 -132 -86 -105 -3 9 0 25 7
35 8 10 38 52 68 94 30 42 56 75 57 74 2 -2 -19 -46 -46 -98z m144 54 c-15
-26 -39 -69 -53 -96 -37 -70 -77 -114 -90 -102 -8 8 0 27 26 65 20 30 40 57
45 58 4 2 8 8 8 13 0 14 71 109 82 109 5 0 -3 -21 -18 -47z m-2601 -29 c1 -21
-4 -39 -11 -42 -7 -2 -12 -13 -12 -24 0 -11 -5 -18 -11 -16 -6 2 -9 6 -8 8 1
3 -3 15 -9 26 -15 29 -23 77 -14 90 25 38 63 14 65 -42z m3722 -1 c-7 -48 -25
-67 -26 -30 -1 15 -2 33 -3 40 -3 18 3 27 20 27 12 0 14 -8 9 -37z m387 12 c5
-26 -14 -51 -31 -41 -10 6 8 66 20 66 4 0 9 -11 11 -25z m-2020 -22 c29 -26
22 -55 -29 -119 -27 -32 -67 -85 -91 -117 -23 -31 -47 -57 -52 -57 -6 0 -10
15 -11 33 0 17 -2 48 -4 67 -1 19 2 44 7 55 12 25 140 154 152 155 5 0 18 -7
28 -17z m518 -97 c-19 -59 -37 -96 -45 -96 -26 0 -27 21 -2 68 58 109 71 132
75 128 2 -3 -10 -48 -28 -100z m1026 68 c9 -37 -5 -206 -21 -252 -6 -15 -51
-12 -49 3 1 6 5 33 8 60 3 28 8 66 11 85 3 19 8 53 10 74 9 62 29 77 41 30z
m240 -1 c-8 -62 -19 -104 -29 -110 -6 -4 -8 3 -4 19 4 14 9 43 13 64 3 21 8
42 11 47 9 14 13 6 9 -20z m-87 -135 c1 -18 -6 -31 -19 -38 -24 -13 -44 -4
-36 16 3 8 8 36 12 62 3 26 9 52 12 57 8 12 30 -59 31 -97z m-3905 84 c2 -4 7
-27 11 -52 4 -25 8 -47 10 -51 6 -8 -24 -49 -36 -49 -5 0 -9 7 -9 16 0 8 -7
22 -15 31 -15 15 -15 79 0 103 7 12 32 13 39 2z m2334 -42 c18 -16 36 -30 42
-30 19 0 10 -21 -42 -98 -107 -160 -279 -364 -291 -345 -3 4 -7 56 -8 114 l-3
106 53 64 c89 107 194 219 206 219 7 0 26 -13 43 -30z m1186 -82 c-4 -94 -13
-180 -19 -187 -3 -3 -13 -6 -21 -7 -16 -3 -16 38 1 186 10 91 14 103 29 91 8
-7 12 -33 10 -83z m-2980 37 c66 -28 116 -65 127 -93 11 -28 15 -165 5 -181
-7 -11 -242 69 -292 99 -19 12 -34 27 -34 32 0 18 70 141 88 155 20 15 52 11
106 -12z m2888 7 c6 -20 1 -187 -6 -226 -6 -34 -29 -56 -57 -56 -19 0 -21 4
-16 38 3 20 8 48 11 62 7 28 18 122 19 160 2 39 40 57 49 22z m-1808 -202 c1
-120 5 -193 11 -198 12 -8 15 -376 3 -387 -15 -15 -47 8 -62 45 -15 38 -30
158 -28 235 0 22 1 132 2 245 0 143 5 210 13 221 14 18 50 39 56 33 2 -2 4
-89 5 -194z m2012 127 c-5 -88 -5 -89 -15 -82 -5 3 -7 29 -4 58 3 28 6 62 6
74 1 12 4 20 8 17 4 -2 6 -32 5 -67z m-312 -9 c1 -44 -4 -100 -18 -188 -5 -32
-19 -49 -49 -59 -17 -6 -34 -8 -38 -4 -6 7 16 119 51 263 20 81 52 74 54 -12z
m-812 38 c14 -11 15 -16 4 -37 -11 -21 -61 -101 -103 -164 -7 -11 -29 -44 -49
-74 -19 -29 -63 -91 -97 -136 -34 -46 -91 -124 -127 -174 -36 -50 -71 -89 -79
-88 -10 1 -15 21 -17 67 -7 138 -7 139 76 230 8 9 44 50 80 91 36 40 79 88 95
105 17 16 48 52 70 80 22 27 43 51 48 52 4 2 7 8 7 14 0 14 42 47 60 47 8 0
23 -5 32 -13z m688 -21 c12 -15 10 -67 -5 -135 -3 -14 -7 -38 -10 -55 -15 -99
-23 -115 -68 -135 -23 -11 -43 -15 -45 -11 -2 5 4 38 13 73 10 34 18 70 20 78
2 8 8 35 15 60 7 25 14 53 16 63 13 71 38 94 64 62z m-570 -29 c0 -33 -263
-505 -299 -536 -3 -3 -31 -41 -60 -85 -30 -44 -59 -81 -63 -83 -4 -2 -8 -10
-8 -17 0 -7 -3 -15 -8 -17 -4 -2 -26 -28 -49 -58 -59 -76 -63 -80 -73 -80 -6
0 -10 10 -10 23 0 12 -2 45 -4 72 -6 58 6 85 80 187 27 37 80 109 117 160 38
51 95 127 128 168 55 69 103 133 187 245 21 29 38 42 47 39 8 -4 15 -11 15
-18z m447 -1 c6 -17 -4 -81 -39 -237 -14 -67 -28 -103 -42 -117 -20 -18 -107
-53 -114 -46 -2 2 8 41 22 87 13 46 39 132 55 192 17 60 36 115 42 122 16 19
68 18 76 -1z m-3155 -52 c23 -51 25 -80 9 -96 -12 -12 -57 25 -67 55 -7 22 13
88 27 88 6 0 20 -21 31 -47z m843 15 c3 -18 7 -70 9 -115 3 -45 7 -87 10 -92
9 -15 -6 -20 -31 -10 -22 8 -23 13 -23 129 0 98 3 120 15 120 8 0 16 -13 20
-32z m1945 23 c0 -35 -180 -444 -201 -457 -5 -3 -9 -14 -9 -24 0 -10 -3 -20
-7 -22 -5 -1 -23 -32 -42 -68 -19 -36 -62 -108 -96 -160 -57 -85 -87 -128
-228 -318 -47 -64 -59 -59 -62 25 -2 72 10 99 107 229 182 244 360 514 474
716 45 80 64 104 64 79z m100 -14 c0 -33 -136 -403 -181 -492 -26 -52 -203
-224 -217 -211 -4 4 57 121 158 306 32 58 91 170 132 250 40 80 77 151 81 158
10 14 27 7 27 -11z m112 11 c4 -11 -17 -139 -36 -227 -8 -37 -55 -175 -64
-186 -11 -15 -73 -58 -107 -75 -16 -8 -34 -16 -39 -19 -16 -7 2 44 54 154 27
58 73 161 102 228 28 67 57 125 62 129 16 11 24 10 28 -4z m-1421 -15 c1 -26
7 -152 13 -283 3 -63 8 -154 10 -202 4 -81 3 -88 -14 -88 -22 0 -60 37 -61 59
0 9 -2 25 -5 36 -5 26 -7 107 -5 270 0 72 -1 143 -3 158 -3 19 2 35 15 48 24
24 49 25 50 2z m-645 -46 c1 -12 4 -58 8 -102 9 -98 9 -87 7 -107 -1 -19 -18
-23 -39 -9 -9 6 -14 28 -13 67 1 61 7 172 9 189 3 17 26 -15 28 -38z m534 -14
c0 -16 3 -71 5 -123 10 -207 11 -296 3 -312 -8 -17 -11 -17 -33 -2 -13 9 -28
26 -32 37 -4 12 -7 109 -8 215 -1 205 0 211 48 212 12 0 17 -8 17 -27z m-425
8 c3 -6 8 -48 11 -96 3 -47 6 -103 8 -125 2 -27 -1 -41 -11 -44 -17 -7 -49 8
-55 26 -4 11 -3 214 1 241 1 10 39 9 46 -2z m101 -22 c10 -17 12 -279 1 -286
-5 -3 -16 2 -24 10 -13 12 -16 41 -15 141 0 69 3 130 7 136 8 13 22 13 31 -1z
m210 -109 c1 -63 5 -147 8 -187 6 -80 -5 -96 -45 -64 -20 16 -22 26 -21 117 1
237 4 259 40 252 13 -3 16 -24 18 -118z m-111 98 c2 -7 6 -80 8 -161 3 -118 1
-150 -10 -154 -7 -3 -20 0 -27 6 -11 9 -13 42 -11 159 2 81 4 150 4 155 2 12
31 8 36 -5z m-1309 -104 c20 -29 26 -93 12 -111 -14 -17 -55 3 -62 31 -14 53
-1 106 26 106 4 0 15 -12 24 -26z m-38 -208 c26 -38 39 -82 34 -113 -5 -31
-19 -29 -52 7 -28 30 -40 73 -32 116 6 33 23 30 50 -10z m1 -201 c17 -20 31
-42 31 -50 0 -18 -2 -18 -45 -1 -26 11 -36 23 -44 53 -6 21 -11 42 -11 46 0
14 37 -12 69 -48z m4 -202 c57 -56 61 -78 15 -69 -46 9 -89 53 -86 88 1 15 7
28 13 28 6 0 32 -21 58 -47z m-17 -155 c16 -12 42 -35 58 -51 22 -23 25 -31
15 -38 -8 -4 -23 -6 -35 -3 -27 7 -56 12 -71 13 -20 1 -46 60 -34 75 6 7 8 16
4 19 -17 18 38 4 63 -15z m52 -195 c57 -33 64 -42 47 -60 -15 -14 -82 -18
-103 -5 -14 10 -26 58 -18 79 8 19 22 16 74 -14z m56 -179 c33 -8 65 -20 71
-25 15 -15 -20 -42 -60 -46 -32 -3 -42 1 -71 32 -32 34 -37 55 -12 55 5 0 38
-7 72 -16z"/>
<path d="M2007 2848 c-33 -26 -54 -141 -24 -139 4 1 13 1 21 1 9 0 15 18 19
53 4 28 9 62 13 75 7 25 -4 28 -29 10z"/>
<path d="M2083 2689 c-15 -15 -5 -39 17 -39 21 0 44 25 35 40 -8 13 -38 13
-52 -1z"/>
<path d="M4798 2558 c-8 -21 2 -38 23 -38 24 0 37 29 18 41 -20 12 -36 11 -41
-3z"/>
<path d="M6906 2271 c-3 -5 0 -27 8 -48 8 -22 16 -55 19 -74 9 -60 19 -90 31
-86 18 6 12 146 -8 185 -16 31 -39 42 -50 23z"/>
<path d="M6772 2188 c-8 -8 -8 -16 0 -32 10 -18 15 -80 17 -213 1 -30 5 -43
15 -43 21 0 26 33 23 163 -2 92 -5 120 -17 127 -19 13 -24 12 -38 -2z"/>
<path d="M2656 2126 c-25 -51 -46 -98 -46 -104 0 -18 19 -24 33 -10 14 15 47
65 48 73 0 2 11 30 24 60 30 67 31 75 6 75 -13 0 -31 -26 -65 -94z"/>
<path d="M3586 1464 c-8 -21 -1 -28 18 -21 9 4 13 13 10 22 -8 20 -20 19 -28
-1z"/>
</g>
</svg>
